<?xml version="1.0" encoding="UTF-8"?>
<svg width="288px" height="63px" viewBox="0 0 288 63" version="1.1" xmlns="http://www.w3.org/2000/svg" xmlns:xlink="http://www.w3.org/1999/xlink">
    <title>cloudloyalty-logo 2</title>
    <g id="Page-1" stroke="none" stroke-width="1" fill="none" fill-rule="evenodd">
        <g id="cloudloyalty-logo" fill-rule="nonzero">
            <g id="Group-5" opacity="0.929873512" transform="translate(80.000000, 21.000000)" fill="#131313">
                <path d="M-9.67182065e-05,9.65616438 C-9.67182065e-05,3.17534247 4.68636034,0.0520547945 9.29744251,0.0520547945 C11.0516586,0.0520547945 12.7808144,0.468493151 14.2844281,1.24931507 L14.2844281,4.13835616 C13.0564769,3.25342466 11.427562,2.78493151 9.77358687,2.78493151 C6.41551615,2.78493151 2.93214429,4.84109589 2.90708406,9.65616438 C2.90708406,14.1328767 6.46563661,16.2150685 9.82370733,16.2150685 C11.6280438,16.2150685 13.2569587,15.7205479 14.4097293,14.809589 L14.4097293,17.7506849 C12.9311758,18.5054795 11.1769597,18.9479452 9.32250274,18.9479452 C4.78660125,18.9479452 -0.0249627558,15.8767123 -9.67182065e-05,9.65616438 Z M17.4921375,0.390410959 L20.3490036,0.390410959 L20.3490036,15.8506849 L29.571168,15.8506849 L29.571168,18.609589 L17.4921375,18.609589 L17.4921375,0.390410959 Z M30.9244203,9.5 C30.9244203,4.68493151 33.9567081,0.0520547945 40.1465847,0.0520547945 C46.3114011,0.0520547945 49.368749,4.68493151 49.368749,9.5 C49.368749,14.3150685 46.3114011,18.9479452 40.1465847,18.9479452 C33.9567081,18.9479452 30.9244203,14.3150685 30.9244203,9.5 Z M46.4617624,9.5 C46.4617624,6.01232877 44.4068237,2.8369863 40.1465847,2.8369863 C35.9114059,2.8369863 33.8314069,6.01232877 33.8314069,9.5 C33.8314069,12.9876712 35.9114059,16.1630137 40.1465847,16.1630137 C44.4068237,16.1630137 46.4617624,12.9876712 46.4617624,9.5 Z M64.455007,0.390410959 L67.3118732,0.390410959 L67.3118732,11.8684932 C67.3118732,17.1520548 63.7282604,18.9479452 59.8439249,18.9479452 C55.9345291,18.9479452 52.3258561,17.1520548 52.3258561,11.8684932 L52.3258561,0.390410959 L55.1827222,0.390410959 L55.1827222,11.7123288 C55.1827222,15.0178082 57.1123599,16.1890411 59.8439249,16.1890411 C62.5253694,16.1890411 64.455007,15.0178082 64.455007,11.7123288 L64.455007,0.390410959 Z M71.3966905,0.390410959 L77.5364467,0.390410959 C83.7513835,0.390410959 86.758611,4.21643836 86.758611,9.5 C86.758611,14.7835616 83.7513835,18.609589 77.5364467,18.609589 L71.3966905,18.609589 L71.3966905,0.390410959 Z M83.8516244,9.5 C83.8516244,5.41369863 81.6713845,3.09726027 77.5113865,3.09726027 L74.2535567,3.09726027 L74.2535567,15.9027397 L77.5113865,15.9027397 C81.6713845,15.9027397 83.8516244,13.5863014 83.8516244,9.5 Z M89.490176,0.390410959 L94.1263184,0.390410959 L94.1263184,14.3150685 L102.145592,14.3150685 L102.145592,18.609589 L89.490176,18.609589 L89.490176,0.390410959 Z M103.248242,9.5 C103.248242,4.42465753 106.380771,0 112.645828,0 C118.910885,0 122.043414,4.42465753 122.043414,9.5 C122.043414,14.5753425 118.910885,19 112.645828,19 C106.380771,19 103.248242,14.5753425 103.248242,9.5 Z M117.28197,9.5 C117.28197,6.58493151 115.678116,4.42465753 112.645828,4.42465753 C109.61354,4.42465753 108.009685,6.58493151 108.009685,9.5 C108.009685,12.4150685 109.61354,14.5753425 112.645828,14.5753425 C115.678116,14.5753425 117.28197,12.4150685 117.28197,9.5 Z M134.247745,18.609589 L129.636663,18.609589 L129.636663,12.3890411 L122.795221,0.390410959 L128.057869,0.390410959 L131.942204,7.91232877 L135.82654,0.390410959 L141.089188,0.390410959 L134.247745,12.3890411 L134.247745,18.609589 Z M145.850632,18.609589 L141.089188,18.609589 L147.980751,0.390410959 L152.992797,0.390410959 L159.88436,18.609589 L155.122916,18.609589 L154.120507,15.7465753 L146.853041,15.7465753 L145.850632,18.609589 Z M150.03569,6.58493151 L148.231353,11.8424658 L152.742195,11.8424658 L150.937858,6.58493151 C150.787497,6.14246575 150.637135,5.7 150.486774,4.7369863 C150.336413,5.7 150.186051,6.14246575 150.03569,6.58493151 Z M161.563395,0.390410959 L166.199538,0.390410959 L166.199538,14.3150685 L174.218811,14.3150685 L174.218811,18.609589 L161.563395,18.609589 L161.563395,0.390410959 Z M174.870377,0.390410959 L189.40531,0.390410959 L189.40531,4.68493151 L184.468445,4.68493151 L184.468445,18.609589 L179.832302,18.609589 L179.832302,4.68493151 L174.870377,4.68493151 L174.870377,0.390410959 Z M201.158557,18.609589 L196.547475,18.609589 L196.547475,12.3890411 L189.706033,0.390410959 L194.968681,0.390410959 L198.853016,7.91232877 L202.737352,0.390410959 L208,0.390410959 L201.158557,12.3890411 L201.158557,18.609589 Z" id="CLOUDLOYALTY"></path>
            </g>
            <circle id="Oval" fill="#5B4DC0" cx="31.5" cy="31.5" r="31.5"></circle>
            <g id="Combined-Shape" transform="translate(17.000000, 17.000000)" fill="#FFFFFF">
                <path d="M13.9499891,0 C14.8024642,0 15.5774878,0.3487497 16.1432616,0.9067493 L16.1432616,0.9067493 L30.0854765,14.8489642 C30.6512503,15.414738 31,16.1897616 31,17.0500109 C31,17.9025587 30.6512503,18.6775096 30.0932507,19.2432834 L30.0932507,19.2432834 L19.2432834,30.0932507 C18.6852838,30.6512503 17.902486,31 17.0500109,31 C16.1975358,31 15.4225122,30.6512503 14.8645126,30.0932507 L14.8645126,30.0932507 L0.9145235,16.1432616 C0.3487497,15.585262 0,14.8102384 0,13.9499891 L0,13.9499891 L0,3.1000218 C0,1.3872247 1.3872247,0 3.1000218,0 L3.1000218,0 L13.9499891,0 Z M20.3558843,14.2083333 C18.8463677,14.2083333 17.5280849,14.9795517 16.7916195,16.1321122 C16.0552484,14.9795517 14.7363994,14.2083333 13.2269142,14.2083333 C10.9151848,14.2083333 9.0416667,16.011091 9.0416667,18.2349865 C9.0416667,19.4457727 9.5993872,20.529001 10.4783892,21.2666578 L16.4096553,26.9728081 C16.5109504,27.0702545 16.6483279,27.125 16.7916195,27.125 C16.9349111,27.125 17.0722886,27.0702545 17.1735836,26.9728081 L23.1048497,21.2666578 C23.9838832,20.529001 24.5416667,19.4457727 24.5416667,18.2349865 C24.5416667,16.011091 22.6676137,14.2083333 20.3558843,14.2083333 Z M5.42502,3.1000218 C4.1384968,3.1000218 3.1000218,4.1384968 3.1000218,5.42502 C3.1000218,6.7115432 4.1384968,7.7500182 5.42502,7.7500182 C6.7114705,7.7500182 7.7500182,6.7115432 7.7500182,5.42502 C7.7500182,4.1384968 6.7115432,3.1000218 5.42502,3.1000218 Z" id="path-1"></path>
            </g>
        </g>
    </g>
</svg>